inDegrees=yes
name=ik_S48_A05_T02
DataType=double
version=3
OpenSimVersion=4.3-2021-08-27-4bc7ad9
endheader
time	pelvis_tilt	pelvis_list	pelvis_rotation	pelvis_tx	pelvis_ty	pelvis_tz	hip_flexion_r	hip_adduction_r	hip_rotation_r	knee_angle_r	knee_angle_r_beta	ankle_angle_r	subtalar_angle_r	mtp_angle_r	hip_flexion_l	hip_adduction_l	hip_rotation_l	knee_angle_l	knee_angle_l_beta	ankle_angle_l	subtalar_angle_l	mtp_angle_l	lumbar_extension	lumbar_bending	lumbar_rotation	arm_flex_r	arm_add_r	arm_rot_r	elbow_flex_r	pro_sup_r	wrist_flex_r	wrist_dev_r	arm_flex_l	arm_add_l	arm_rot_l	elbow_flex_l	pro_sup_l	wrist_flex_l	wrist_dev_l
10.89999999999986	-4.380975592851295	-1.38351167477274	29.78558317514075	0	0.9399999999999999	0	18.56009944117899	-7.340177561339837	-6.024272079577588	20.99465167182968	0.36642579698276	0	0	0	18.56009944117899	-7.340177561339837	-6.024272079577588	20.99465167182968	0.36642579698276	0	0	0	-0.9622042640688294	-3.044638924187701	2.575178859558115	68.50393407596648	-6.257423675992041	-5.70333111728505	25.8131459256808	107.7475586215977	0	0	33.15367658340039	-9.140157874187276	-6.935603794637077	24.46443550519996	124.3962510267405	0	0
10.91999999999986	-4.367608375311485	-1.374172048910608	29.79731035555719	0	0.9399999999999999	0	18.57054389604048	-7.34340166110885	-6.027372638971442	21.00549633311163	0.3666150720283934	0	0	0	18.57054389604048	-7.34340166110885	-6.027372638971442	21.00549633311163	0.3666150720283934	0	0	0	-0.9468911761039879	-3.041786531683675	2.558333362281994	68.89508153634895	-6.351509458388606	-5.456944208602234	26.01594433397632	107.5908820115374	0	0	33.12856582312636	-9.171478356122591	-6.975713817830229	24.44241752859556	124.4259470423391	0	0
10.93999999999986	-4.362437942412761	-1.365963292071058	29.81625554829221	0	0.9399999999999999	0	18.57894148521564	-7.345980649834251	-6.029858497748544	21.01424642008584	0.3667677898559293	0	0	0	18.57894148521564	-7.345980649834251	-6.029858497748544	21.01424642008584	0.3667677898559293	0	0	0	-0.9388572126877004	-3.03633244513252	2.553786063159264	69.26672267470757	-6.428060274550338	-5.181839303827382	25.67066927523025	107.3373737067256	0	0	33.11388468865916	-9.147689737433273	-6.971258223843912	24.43824931844791	124.4451392587693	0	0
10.95999999999986	-4.354499073847807	-1.376305032258647	29.80419390448399	0	0.9399999999999999	0	18.59265726433125	-7.350211028909754	-6.033929269425331	21.02847962956548	0.3670162062244752	0	0	0	18.59265726433125	-7.350211028909754	-6.033929269425331	21.02847962956548	0.3670162062244752	0	0	0	-0.9374709147456967	-3.048945761064998	2.58205544879579	69.64961846413615	-6.542065342409308	-5.041521935837143	26.47314594042482	107.1459205300793	0	0	33.12081309939433	-9.148833061327441	-6.808241474856016	24.41038752694044	124.3680609045437	0	0
10.97999999999985	-4.338119340501238	-1.375355407044689	29.80537660819588	0	0.9399999999999999	0	18.60154745274794	-7.352941788579503	-6.036561939084765	21.037729465043	0.3671776463088257	0	0	0	18.60154745274794	-7.352941788579503	-6.036561939084765	21.037729465043	0.3671776463088257	0	0	0	-0.9232849494428358	-3.055591649523193	2.58525963574193	69.94909781152234	-6.603327133115865	-4.934730521741182	26.17088677652152	107.0320317694815	0	0	33.10373316943721	-9.159262856500561	-6.797345065959006	24.39969256013045	124.3809686802077	0	0
10.99999999999985	-4.333724296749887	-1.374476598554833	29.80655086205923	0	0.9399999999999999	0	18.61665481413961	-7.35759719289506	-6.041044723684694	21.05339581448882	0.3674510756884232	0	0	0	18.61665481413961	-7.35759719289506	-6.041044723684694	21.05339581448882	0.3674510756884232	0	0	0	-0.9200544812797845	-3.055637542713503	2.585082236915189	70.27551886352437	-6.715453263254878	-4.842586207965421	26.97260819491495	106.8593578888132	0	0	33.11680051595825	-9.165572953868754	-6.813056251679674	24.35926180508116	124.4127870298879	0	0
11.01999999999985	-4.333336423149117	-1.375649382890067	29.815155266108	0	0.9399999999999999	0	18.62588545235506	-7.360427353444585	-6.043776171188586	21.06299969713395	0.3676186950615559	0	0	0	18.62588545235506	-7.360427353444585	-6.043776171188586	21.06299969713395	0.3676186950615559	0	0	0	-0.9206990688647851	-3.056330622208216	2.596623625004375	70.53108310241119	-6.804493256634388	-4.747524517222168	26.73667049342458	106.7549609253753	0	0	33.13769644148472	-9.152739808483286	-6.802609688549422	24.34878523050911	124.4217258926391	0	0
